<?xml version="1.0" ?><!DOCTYPE svg  PUBLIC '-//W3C//DTD SVG 1.1//EN'  'http://www.w3.org/Graphics/SVG/1.1/DTD/svg11.dtd'><svg width="250px" height="250px" viewBox="0 0 250 250" style="fill-rule:evenodd;clip-rule:evenodd;stroke-linecap:round;stroke-linejoin:round;stroke-miterlimit:1.5;" version="1.1" xml:space="preserve" xmlns="http://www.w3.org/2000/svg" xmlns:serif="http://www.serif.com/" xmlns:xlink="http://www.w3.org/1999/xlink"><path d="M229.615,66.124L204.275,244.75L45.725,244.75L20.385,66.124L229.615,66.124ZM172,5.25L11.75,5.25L172,5.25Z" style="fill:rgb(205,97,29);stroke:black;stroke-width:7.5px;"/><path d="M21.52,74.124L20.385,66.124L229.615,66.124L204.275,244.75L168.41,244.75L192.615,74.124L21.52,74.124Z" style="fill:rgb(161,81,31);"/><path d="M229.615,66.124L204.275,244.75L45.725,244.75L20.385,66.124L229.615,66.124ZM172,5.25L11.75,5.25L172,5.25Z" style="fill:none;stroke:black;stroke-width:7.5px;"/><g transform="matrix(1.06402,0,0,1,-8.00217,0)"><path d="M20.385,66.124L11.75,5.25L238.25,5.25L229.615,66.124L20.385,66.124Z" style="fill:rgb(205,97,29);stroke:black;stroke-width:7.26px;"/></g><path d="M4.5,5.25L245.5,5.25L236.312,66.124L199.312,66.124L208.5,5.25L4.5,5.25Z" style="fill:rgb(161,81,31);"/><g transform="matrix(1.06402,0,0,1,-8.00217,0)"><path d="M20.385,66.124L11.75,5.25L238.25,5.25L229.615,66.124L20.385,66.124Z" style="fill:none;stroke:black;stroke-width:7.26px;"/></g></svg>