<?xml version="1.0" standalone="no"?>
<!DOCTYPE svg PUBLIC "-//W3C//DTD SVG 20010904//EN"
 "http://www.w3.org/TR/2001/REC-SVG-20010904/DTD/svg10.dtd">
<svg version="1.0" xmlns="http://www.w3.org/2000/svg"
 width="211.000000pt" height="260.000000pt" viewBox="0 0 211.000000 260.000000"
 preserveAspectRatio="xMidYMid meet">
<metadata>
Created by potrace 1.16, written by Peter Selinger 2001-2019
</metadata>
<g transform="translate(0.000000,260.000000) scale(0.100000,-0.100000)"
fill="#00008b" stroke="none">
<path d="M705 2586 c-70 -22 -107 -45 -241 -149 -13 -10 -52 -48 -86 -84 -71
-73 -125 -114 -180 -133 -32 -12 -40 -22 -58 -69 -12 -31 -30 -74 -40 -96 -10
-22 -26 -76 -35 -120 -9 -44 -26 -111 -37 -148 -16 -55 -19 -81 -13 -125 5
-32 9 -95 11 -142 4 -165 9 -218 18 -213 5 3 7 -6 4 -22 -3 -15 0 -53 8 -84 8
-34 13 -116 14 -209 0 -126 3 -162 20 -209 11 -32 20 -63 20 -71 0 -7 10 -36
21 -63 l21 -49 52 0 c63 0 86 -14 161 -100 32 -36 66 -73 76 -83 10 -9 31 -42
45 -72 15 -30 31 -55 35 -55 5 0 11 22 15 50 4 27 10 48 13 45 4 -2 20 -29 35
-59 30 -60 140 -174 203 -211 21 -13 56 -26 78 -30 98 -17 196 -49 191 -62 -4
-10 6 -13 39 -13 44 0 62 15 28 22 -10 2 15 13 56 23 41 11 83 27 93 35 17 14
13 15 -48 13 -59 -1 -72 2 -101 24 -31 24 -38 25 -77 16 -42 -9 -45 -8 -68 21
-40 49 -48 146 -12 132 7 -3 30 2 51 11 28 11 54 14 102 9 l63 -7 -8 28 c-4
15 -8 40 -9 56 -1 15 -4 30 -8 33 -3 3 -42 11 -88 17 -57 9 -85 17 -93 29 -17
27 4 39 75 44 114 9 158 7 172 -5 18 -14 97 -23 97 -10 0 5 -9 9 -20 9 -11 0
-37 15 -57 34 -33 29 -100 72 -81 51 13 -14 -20 -35 -56 -35 -20 0 -36 3 -36
8 0 4 -20 18 -45 31 -50 26 -57 53 -30 101 8 14 14 38 15 53 0 17 7 30 18 34
28 11 62 47 62 66 0 10 -20 39 -45 64 -35 34 -45 52 -45 77 0 18 5 37 12 44 7
7 9 12 5 12 -3 0 0 21 8 48 17 55 21 312 5 340 -5 9 -14 29 -20 44 -7 22 -20
31 -55 40 -27 7 -40 15 -33 19 9 6 7 10 -6 15 -11 4 -22 2 -27 -7 -8 -12 -11
-12 -22 2 -21 27 -49 37 -87 32 -40 -6 -52 4 -56 44 -2 20 2 23 28 23 17 0 36
-7 42 -16 10 -13 14 -14 23 -2 9 10 7 24 -9 58 -24 51 -33 100 -18 100 13 0
13 37 0 45 -8 5 -7 74 1 95 1 3 3 19 4 35 2 17 6 39 10 51 7 21 55 44 94 44
12 0 30 4 39 9 55 29 305 30 382 1 14 -5 63 -20 110 -34 70 -21 93 -34 133
-71 26 -26 62 -71 80 -101 17 -31 41 -70 51 -87 35 -59 47 -126 47 -267 0
-154 -7 -240 -22 -288 -6 -19 -11 -95 -11 -170 -1 -77 -5 -143 -11 -150 -14
-18 -2 -25 22 -13 37 20 44 48 26 93 -9 22 -14 42 -12 44 2 3 16 -5 30 -17
l27 -20 0 44 0 44 51 16 c60 20 142 85 157 124 5 16 15 54 22 86 6 32 29 104
50 160 l39 102 -22 12 -22 12 23 1 c19 0 22 5 22 45 0 25 -4 45 -9 45 -5 0
-22 5 -38 11 -20 7 -24 12 -14 18 9 6 10 11 2 15 -23 14 -10 28 20 24 l32 -5
-6 56 c-10 95 -29 162 -44 157 -7 -3 -13 -1 -13 4 0 6 -13 10 -30 10 -16 0
-30 5 -30 10 0 13 26 13 50 0 24 -13 33 1 20 34 -6 17 -18 26 -32 27 -22 1
-22 1 -2 7 20 7 20 10 8 42 -7 19 -13 29 -13 23 -1 -7 -6 -13 -12 -13 -6 0 -9
9 -6 19 3 13 -6 29 -28 48 -27 24 -31 34 -29 66 3 33 -1 39 -41 67 -24 17 -50
27 -59 24 -8 -3 -21 -2 -28 2 -19 12 -39 14 -32 2 12 -20 10 -115 -3 -115 -16
0 -27 58 -20 102 5 29 2 35 -16 41 -12 4 -71 29 -132 56 -118 53 -126 55 -165
44 -25 -7 -25 -7 -5 10 20 16 20 16 -5 10 -14 -3 -31 -6 -37 -6 -7 0 -13 -4
-13 -10 0 -5 8 -10 17 -10 13 0 14 -3 5 -12 -8 -8 -15 -8 -25 0 -8 7 -17 9
-21 5 -4 -4 -19 -8 -34 -9 -15 0 -42 -2 -60 -2 -22 -1 -32 -6 -30 -14 5 -13
-14 -38 -27 -38 -4 0 -5 7 -1 15 3 9 0 15 -9 15 -7 0 -15 10 -17 23 -2 16 -12
24 -38 28 -19 4 -31 7 -26 8 6 0 1 7 -9 15 -11 8 -22 13 -25 11 -3 -2 -26 12
-50 31 -68 51 -71 54 -65 65 9 14 -213 10 -260 -5z m70 -1386 c-19 -8 -19 -9
2 -9 12 -1 24 3 28 9 11 18 35 -2 35 -30 0 -21 -6 -29 -23 -34 -13 -3 -29 -16
-36 -30 -20 -36 -101 -65 -101 -36 0 6 -8 10 -17 10 -22 0 -83 59 -83 81 0 18
36 32 54 22 22 -14 61 -11 95 7 20 11 43 19 51 19 10 0 8 -3 -5 -9z"/>
<path d="M1335 1533 c-67 -14 -127 -55 -107 -75 16 -16 293 -10 310 7 3 3 -9
10 -27 16 -22 8 -30 16 -27 26 3 8 2 12 -3 8 -5 -3 -11 0 -13 6 -4 12 -95 20
-133 12z"/>
<path d="M1253 1358 c-11 -13 -24 -34 -27 -48 -6 -23 -6 -23 7 -7 21 25 30 21
13 -6 -20 -29 -10 -43 37 -51 20 -3 53 -9 72 -12 29 -5 38 -2 58 21 21 25 25
26 38 12 10 -10 21 -12 30 -7 7 5 11 11 9 13 -13 11 -124 47 -146 47 -29 0
-24 16 10 31 16 7 11 8 -21 5 -32 -3 -43 -1 -43 10 0 20 -14 17 -37 -8z"/>
</g>
</svg>
