<?xml version="1.0" encoding="iso-8859-1"?>
<!-- Generator: Adobe Illustrator 19.0.0, SVG Export Plug-In . SVG Version: 6.00 Build 0)  -->
<svg version="1.1" id="Layer_1" xmlns="http://www.w3.org/2000/svg" xmlns:xlink="http://www.w3.org/1999/xlink" x="0px" y="0px"
	 viewBox="0 0 512 512" style="enable-background:new 0 0 512 512;" xml:space="preserve">
<circle style="fill:#00AB94;" cx="256" cy="256" r="256"/>
<path style="fill:#018778;" d="M256,0c-11.317,0-22.461,0.744-33.391,2.167C348.216,18.53,445.217,125.933,445.217,256
	s-97.002,237.47-222.609,253.833C233.539,511.256,244.683,512,256,512c141.385,0,256-114.616,256-256S397.385,0,256,0z"/>
<path style="fill:#FFFFFF;" d="M132.351,388.108V91.146c0-1.588,1.52-2.735,3.046-2.298l74.246,21.212
	c1.026,0.293,1.733,1.231,1.733,2.298v238.17c0,1.878,2.065,3.022,3.656,2.027l80.666-50.416c1.471-0.92,1.504-3.053,0.059-4.016
	l-29.034-19.355c-0.472-0.315-0.817-0.787-0.973-1.332l-21.03-73.606c-0.55-1.926,1.369-3.633,3.218-2.863l128.923,53.719
	c0.89,0.371,1.47,1.241,1.47,2.206v86.754c0,0.859-0.462,1.653-1.209,2.078l-154.9,88.029c-0.696,0.395-1.544,0.416-2.258,0.056
	l-86.303-43.569C132.858,389.835,132.351,389.01,132.351,388.108z"/>
<g>
</g>
<g>
</g>
<g>
</g>
<g>
</g>
<g>
</g>
<g>
</g>
<g>
</g>
<g>
</g>
<g>
</g>
<g>
</g>
<g>
</g>
<g>
</g>
<g>
</g>
<g>
</g>
<g>
</g>
</svg>
