<?xml version="1.0" encoding="utf-8"?><svg version="1.1" id="Layer_1" xmlns="http://www.w3.org/2000/svg" xmlns:xlink="http://www.w3.org/1999/xlink" x="0px" y="0px" viewBox="0 0 106.61 122.88" style="enable-background:new 0 0 106.61 122.88" xml:space="preserve"><g><path d="M21.56,91.1c0.93-0.45,2.04-0.06,2.48,0.87s0.06,2.04-0.87,2.48c-1.63,0.79-3.47,1.04-5.53,0.83 c-1.11-0.12-2.29-0.37-3.52-0.75c0.05,0.48,0.1,0.95,0.16,1.43c0.18,1.34,0.42,2.72,0.73,4.13c0.11,0.49,0.01,0.98-0.23,1.38 c-1.04,2.11-1.57,3.87-1.67,5.33c-0.1,1.52,0.31,2.66,1.11,3.48c0.89,0.9,2.29,1.5,4.06,1.84c2.82,0.53,6.44,0.37,10.37-0.34 c3.75-0.67,7.97-1.76,11.85-3.26c3.15-1.22,6.07-2.72,8.3-4.5c2.18-1.74,3.18-4.59,4.03-7.03c0.18-0.51,0.35-0.99,0.43-1.2 l0.25-0.68c1.07-2.94,2.93-8.05,5.34-9.91c0.81-0.63,1.98-0.48,2.61,0.34c0.63,0.81,0.48,1.98-0.34,2.61 c-1.56,1.2-3.18,5.66-4.12,8.24c-0.19,0.53-0.15,0.43-0.25,0.69c-0.2,0.54-0.31,0.84-0.41,1.14c-1.02,2.91-2.21,6.31-5.23,8.72 c-2.53,2.02-5.78,3.7-9.27,5.05c-0.79,0.31-1.6,0.6-2.41,0.87c0.03,1.22-0.01,2.43-0.13,3.65c-0.17,1.7-0.47,3.37-0.91,5 c-0.27,0.99-1.29,1.58-2.28,1.32c-0.99-0.27-1.58-1.29-1.32-2.28c0.39-1.47,0.67-2.94,0.81-4.39c0.07-0.72,0.11-1.44,0.12-2.17 c-2.19,0.6-4.37,1.08-6.41,1.45c-4.37,0.78-8.44,0.96-11.71,0.34c-2.5-0.47-4.57-1.41-6.03-2.88c-1.54-1.57-2.34-3.65-2.17-6.32 c0.12-1.81,0.7-3.9,1.84-6.3c-0.25-1.23-0.47-2.5-0.64-3.82c-0.19-1.47-0.32-2.95-0.38-4.45c-0.01-0.05-0.01-0.11-0.01-0.16 c-0.01-0.06-0.02-0.13-0.03-0.19c-0.27-2.81-0.3-5.55-0.34-8.32l-0.01-0.64l-4.3-0.25l-0.05,0c-1.12-0.04-2.13-0.37-2.97-0.92 c-0.82-0.53-1.47-1.27-1.9-2.15C0.2,78.49-0.02,77.51,0,76.43c0.03-1.49,0.53-3.15,1.62-4.85l4.6-9.41 c2.26-4.61,2.23-5.22,2.14-7.64c-0.04-1.09-0.1-2.48-0.03-4.57c0.08-2.49,0.36-4.87,0.9-7.1c0.38-1.58,0.89-3.08,1.55-4.5 l-8.37-3.65c-0.94-0.41-1.37-1.51-0.96-2.45c0.06-0.13,0.13-0.25,0.2-0.36l0,0c20-27.26,42.59-34.76,61.7-31 c11.16,2.2,21.11,8.27,28.63,16.5c7.52,8.22,12.63,18.62,14.15,29.51c2.49,17.91-4.7,37.09-26.84,50.07 c-0.19,0.11-0.39,0.19-0.6,0.22c0.01,2.72,0.18,5.35,0.49,7.91c0.62,5.06,1.8,9.81,3.49,14.27c0.36,0.96-0.12,2.03-1.09,2.4 c-0.96,0.36-2.03-0.12-2.4-1.09c-1.79-4.75-3.05-9.78-3.7-15.13c-0.65-5.33-0.7-10.99-0.08-17.03c0.1-1.02,1.02-1.77,2.04-1.66 c1.02,0.1,1.77,1.02,1.66,2.04c-0.14,1.36-0.24,2.7-0.31,4.03c19.53-12.06,25.89-29.37,23.65-45.52 c-1.41-10.14-6.18-19.84-13.2-27.51C82.25,12.25,73,6.61,62.64,4.56C45.27,1.14,24.67,7.89,6.05,32.24l7.95,3.47 c0.11,0.04,0.22,0.09,0.32,0.15c0.88,0.53,1.16,1.68,0.63,2.56c-0.97,1.61-1.66,3.39-2.12,5.31c-0.48,1.98-0.72,4.11-0.8,6.35 c-0.06,1.95-0.01,3.28,0.03,4.31c0.13,3.16,0.16,3.95-2.51,9.42l-4.62,9.44c-0.04,0.09-0.09,0.19-0.15,0.28 c-0.73,1.12-1.06,2.13-1.08,2.98c-0.01,0.46,0.07,0.86,0.23,1.18c0.14,0.29,0.34,0.52,0.59,0.68c0.29,0.19,0.65,0.3,1.06,0.32 c0.05,0,0.1,0,0.15,0l5.33,0.31c0.17-0.06,0.35-0.09,0.54-0.09c0.06,0,0.13,0,0.19,0.01l0-0.01l4.91,0.42 c1.03,0.08,1.79,0.98,1.7,2.01c-0.08,1.03-0.98,1.79-2.01,1.7l-0.1-0.01l-2.77-0.16l0.01,0.38c0.03,2.42,0.06,4.81,0.26,7.23 c1.55,0.58,2.96,0.95,4.21,1.08C19.4,91.72,20.58,91.57,21.56,91.1L21.56,91.1z M73.56,21.17c-0.22-0.38-0.55-0.64-0.96-0.75 c-0.41-0.11-0.83-0.05-1.21,0.17l-2.08,1.2c-0.37-0.4-0.77-0.79-1.2-1.13c-0.42-0.36-0.87-0.68-1.33-0.98l0.67-2.53 c0.11-0.43,0.07-0.82-0.15-1.2c-0.22-0.38-0.54-0.62-0.97-0.73l-3.17-0.84c-0.4-0.11-0.79-0.06-1.19,0.16 c-0.38,0.22-0.63,0.53-0.75,0.96l-0.62,2.31c-0.56-0.01-1.12,0.01-1.67,0.06c-0.55,0.05-1.08,0.16-1.59,0.28l-1.35-2.28 c-0.21-0.38-0.51-0.62-0.93-0.74c-0.41-0.11-0.81-0.05-1.21,0.17l-2.8,1.64c-0.38,0.22-0.64,0.55-0.75,0.96 c-0.11,0.41-0.05,0.83,0.17,1.21l1.2,2.08c-0.4,0.37-0.77,0.77-1.13,1.2c-0.36,0.42-0.68,0.87-0.98,1.34l-2.53-0.67 c-0.43-0.11-0.82-0.07-1.2,0.15c-0.38,0.22-0.62,0.54-0.73,0.97l-0.84,3.17c-0.11,0.4-0.06,0.79,0.16,1.19 c0.22,0.38,0.53,0.63,0.96,0.75l2.31,0.62c-0.01,0.56,0.01,1.12,0.06,1.67c0.05,0.55,0.15,1.09,0.27,1.63l-2.28,1.32 c-0.38,0.21-0.62,0.51-0.74,0.93c-0.11,0.41-0.05,0.81,0.17,1.21l1.63,2.85c0.22,0.37,0.56,0.61,0.97,0.72 c0.41,0.11,0.82,0.07,1.2-0.14l2.09-1.23c0.37,0.4,0.77,0.77,1.2,1.13c0.42,0.36,0.87,0.68,1.33,0.98l-0.67,2.53 c-0.11,0.43-0.07,0.82,0.15,1.2c0.22,0.38,0.54,0.62,0.97,0.73l3.17,0.84c0.4,0.11,0.79,0.06,1.19-0.16 c0.38-0.22,0.63-0.53,0.75-0.96l0.62-2.31c0.56,0.01,1.12-0.01,1.67-0.06c0.55-0.05,1.09-0.15,1.63-0.27l1.32,2.28 c0.21,0.38,0.52,0.63,0.95,0.74c0.43,0.11,0.83,0.05,1.19-0.17l2.85-1.63c0.37-0.24,0.61-0.56,0.72-0.97 c0.11-0.41,0.07-0.82-0.14-1.2l-1.23-2.09c0.4-0.37,0.77-0.77,1.13-1.2c0.36-0.42,0.68-0.87,0.98-1.33l2.53,0.67 c0.43,0.11,0.82,0.07,1.2-0.15c0.38-0.22,0.62-0.54,0.73-0.97l0.84-3.17c0.11-0.4,0.06-0.79-0.16-1.19 c-0.22-0.38-0.53-0.63-0.96-0.75l-2.31-0.62c0.01-0.55-0.02-1.09-0.06-1.65c-0.05-0.56-0.15-1.09-0.27-1.62l2.28-1.35 c0.38-0.21,0.62-0.51,0.74-0.93c0.11-0.41,0.05-0.81-0.17-1.21l-1.64-2.8L73.56,21.17L73.56,21.17z M86.56,42.86 c-0.16-0.2-0.35-0.29-0.59-0.31c-0.24-0.02-0.46,0.05-0.64,0.21l-1.02,0.84c-0.24-0.19-0.49-0.34-0.75-0.51 c-0.27-0.15-0.54-0.28-0.82-0.4l0.12-1.43c0.02-0.24-0.05-0.46-0.2-0.63c-0.15-0.18-0.35-0.28-0.59-0.31l-1.79-0.16 c-0.23-0.01-0.44,0.05-0.63,0.2c-0.18,0.15-0.29,0.35-0.31,0.59l-0.12,1.31c-0.3,0.04-0.61,0.11-0.89,0.19 c-0.3,0.09-0.57,0.18-0.84,0.3l-0.94-1.11c-0.15-0.19-0.34-0.29-0.58-0.31c-0.24-0.02-0.44,0.05-0.64,0.21l-1.37,1.15 c-0.2,0.16-0.29,0.35-0.31,0.59c-0.02,0.24,0.05,0.46,0.21,0.64l0.84,1.02c-0.19,0.24-0.34,0.49-0.51,0.75 c-0.15,0.27-0.28,0.54-0.4,0.82l-1.43-0.12c-0.24-0.02-0.46,0.05-0.63,0.2c-0.18,0.15-0.28,0.35-0.31,0.59l-0.16,1.79 c-0.01,0.23,0.05,0.44,0.2,0.63c0.15,0.18,0.35,0.29,0.59,0.31l1.31,0.12c0.04,0.3,0.11,0.61,0.19,0.89 c0.09,0.3,0.18,0.58,0.29,0.86l-1.1,0.93c-0.19,0.15-0.29,0.34-0.31,0.58c-0.02,0.24,0.05,0.44,0.21,0.64l1.14,1.39 c0.17,0.18,0.35,0.28,0.59,0.3s0.46-0.05,0.63-0.18l1.02-0.86c0.24,0.19,0.49,0.34,0.75,0.51c0.27,0.15,0.54,0.28,0.82,0.4 l-0.12,1.43c-0.02,0.24,0.05,0.46,0.2,0.63c0.15,0.18,0.35,0.28,0.59,0.31l1.79,0.16c0.23,0.01,0.44-0.05,0.63-0.2 c0.18-0.15,0.29-0.35,0.31-0.59l0.12-1.31c0.3-0.04,0.61-0.11,0.89-0.19c0.3-0.09,0.58-0.18,0.86-0.29l0.93,1.1 c0.15,0.19,0.34,0.29,0.59,0.31c0.24,0.02,0.46-0.05,0.63-0.2l1.39-1.14c0.18-0.17,0.28-0.35,0.3-0.59 c0.02-0.24-0.03-0.45-0.18-0.63l-0.87-1.03c0.19-0.24,0.34-0.49,0.51-0.75c0.15-0.27,0.28-0.54,0.4-0.83L88,51.8 c0.24,0.02,0.46-0.05,0.63-0.2c0.18-0.15,0.28-0.35,0.31-0.59l0.16-1.79c0.01-0.23-0.05-0.44-0.2-0.63 c-0.15-0.19-0.35-0.29-0.59-0.31L87,48.16c-0.04-0.3-0.1-0.59-0.19-0.89c-0.09-0.3-0.18-0.58-0.3-0.84l1.11-0.94 c0.19-0.15,0.29-0.34,0.31-0.58c0.02-0.24-0.05-0.44-0.21-0.64l-1.15-1.37L86.56,42.86L86.56,42.86z M80.46,45.91 c0.43,0.04,0.83,0.16,1.21,0.35c0.37,0.21,0.69,0.46,0.94,0.76c0.25,0.31,0.45,0.67,0.59,1.07c0.14,0.4,0.18,0.83,0.14,1.26 c-0.04,0.43-0.16,0.83-0.35,1.21c-0.21,0.37-0.46,0.69-0.76,0.94c-0.31,0.25-0.67,0.45-1.07,0.59c-0.4,0.14-0.83,0.18-1.26,0.14 c-0.43-0.04-0.83-0.16-1.21-0.35c-0.37-0.21-0.69-0.46-0.94-0.76c-0.25-0.31-0.45-0.67-0.59-1.07c-0.14-0.4-0.18-0.83-0.14-1.26 c0.04-0.43,0.16-0.83,0.35-1.21c0.21-0.37,0.46-0.69,0.76-0.94c0.31-0.25,0.67-0.45,1.07-0.59C79.6,45.91,80.03,45.87,80.46,45.91 L80.46,45.91z M61.85,24.09c0.86,0.23,1.61,0.6,2.3,1.13c0.67,0.53,1.21,1.15,1.63,1.85c0.41,0.7,0.67,1.49,0.8,2.34 c0.12,0.86,0.07,1.7-0.16,2.55c-0.23,0.86-0.6,1.61-1.13,2.3c-0.53,0.67-1.15,1.21-1.85,1.63c-0.7,0.41-1.49,0.67-2.34,0.8 c-0.84,0.13-1.7,0.07-2.55-0.16c-0.86-0.23-1.61-0.6-2.3-1.13c-0.67-0.53-1.21-1.15-1.63-1.85c-0.41-0.7-0.67-1.49-0.8-2.34 c-0.13-0.84-0.07-1.7,0.16-2.55c0.23-0.86,0.6-1.61,1.13-2.3c0.53-0.67,1.15-1.21,1.86-1.63c0.7-0.41,1.49-0.67,2.34-0.8 C60.16,23.81,61,23.86,61.85,24.09L61.85,24.09z M37.63,53.67c0.89,0.51,1.2,1.65,0.69,2.54c-0.51,0.89-1.65,1.2-2.54,0.69 c-1.79-1.02-3.52-1.49-5.19-1.49c-1.8,0-3.55,0.54-5.23,1.49c-0.89,0.51-2.03,0.19-2.53-0.7c-0.51-0.89-0.19-2.03,0.7-2.53 c2.24-1.27,4.61-1.98,7.06-1.98C32.9,51.69,35.25,52.31,37.63,53.67L37.63,53.67z M30,57.35c-1.44,0-2.61,1.17-2.61,2.61 c0,1.44,1.17,2.61,2.61,2.61c1.44,0,2.61-1.17,2.61-2.61C32.61,58.52,31.44,57.35,30,57.35L30,57.35z"/></g></svg>