<svg xmlns="http://www.w3.org/2000/svg"  viewBox="0 0 64 64" width="64px" height="64px"><radialGradient id="1~sa0a9TkApyT3tW4X3QCa" cx="32.472" cy="1905.505" r="30.516" gradientTransform="translate(0 -1874)" gradientUnits="userSpaceOnUse"><stop offset="0" stop-color="#afeeff"/><stop offset=".193" stop-color="#bbf1ff"/><stop offset=".703" stop-color="#d7f8ff"/><stop offset="1" stop-color="#e1faff"/></radialGradient><path fill="url(#1~sa0a9TkApyT3tW4X3QCa)" d="M58.972,20.005h1.5c2.168,0,3.892-1.998,3.422-4.243c-0.342-1.635-1.866-2.757-3.537-2.757	H42.972c-1.105,0-2-0.895-2-2s0.895-2,2-2h13.385c1.67,0,3.195-1.122,3.537-2.757c0.47-2.245-1.254-4.243-3.422-4.243H33.978h-1.506	h-27c-1.925,0-3.5,1.575-3.5,3.5s1.575,3.5,3.5,3.5h1.5c1.105,0,2,0.895,2,2s-0.895,2-2,2H4.587c-1.67,0-3.195,1.122-3.537,2.757	c-0.47,2.245,1.254,4.243,3.422,4.243h13.5v12H4.587c-1.67,0-3.195,1.122-3.537,2.757c-0.47,2.245,1.254,4.243,3.422,4.243h0.5	c1.105,0,2,0.895,2,2s-0.895,2-2,2h-0.5c-2.168,0-3.892,1.998-3.422,4.243c0.342,1.635,1.867,2.757,3.537,2.757h5.385	c1.105,0,2,0.895,2,2s-0.895,2-2,2H6.587c-1.67,0-3.195,1.122-3.537,2.757c-0.47,2.245,1.254,4.243,3.422,4.243h24.494h1.506h24	c1.925,0,3.5-1.575,3.5-3.5s-1.575-3.5-3.5-3.5h-7.5c-1.105,0-2-0.895-2-2s0.895-2,2-2h10.385c1.67,0,3.195-1.122,3.537-2.757	c0.47-2.245-1.254-4.243-3.422-4.243h-12.5v-12h12.385c1.67,0,3.195-1.122,3.537-2.757c0.47-2.245-1.254-4.243-3.422-4.243h-0.5	c-1.105,0-1.883-0.821-1.883-1.926S57.867,20.005,58.972,20.005z"/><linearGradient id="1~sa0a9TkApyT3tW4X3QCb" x1="32" x2="32" y1="57" y2="11" gradientTransform="matrix(1 0 0 -1 0 66)" gradientUnits="userSpaceOnUse"><stop offset="0" stop-color="#a4a4a4"/><stop offset=".619" stop-color="gray"/><stop offset="1" stop-color="#6f6f6f"/><stop offset="1" stop-color="#6f6f6f"/></linearGradient><path fill="url(#1~sa0a9TkApyT3tW4X3QCb)" d="M17,9c-4.4,0-8,3.6-8,8v30c0,4.4,3.6,8,8,8h30c4.4,0,8-3.6,8-8V17c0-4.4-3.6-8-8-8H17z"/><linearGradient id="1~sa0a9TkApyT3tW4X3QCc" x1="34" x2="34" y1="17" y2="49.001" gradientTransform="matrix(1 0 0 -1 0 66)" gradientUnits="userSpaceOnUse"><stop offset="0" stop-color="#ff724e"/><stop offset=".214" stop-color="#fe7366"/><stop offset=".524" stop-color="#fc7383"/><stop offset=".793" stop-color="#fb7495"/><stop offset=".989" stop-color="#fb749b"/></linearGradient><path fill="url(#1~sa0a9TkApyT3tW4X3QCc)" d="M30,49c-6.065,0-11-4.935-11-11s4.935-11,11-11c1.657,0,3,1.343,3,3s-1.343,3-3,3	c-2.757,0-5,2.243-5,5s2.243,5,5,5s5-2.243,5-5V20.244c-0.08-0.55,0.026-1.051,0.359-1.668c0.651-1.209,2.037-1.822,3.375-1.485	c0.874,0.221,1.576,0.813,1.956,1.582c0.289,0.568,1.433,2.774,1.669,3.158C42.992,22.793,44.689,23,46,23c1.657,0,3,1.343,3,3	s-1.343,3-3,3c-2.074,0-3.711-0.358-5-0.903V38C41,44.065,36.065,49,30,49z"/><path fill="#fff" d="M28,47c-6.065,0-11-4.935-11-11s4.935-11,11-11c1.657,0,3,1.343,3,3s-1.343,3-3,3	c-2.757,0-5,2.243-5,5s2.243,5,5,5s5-2.243,5-5V18.244c-0.08-0.55,0.026-1.051,0.359-1.668c0.651-1.209,2.037-1.822,3.375-1.485	c0.874,0.221,1.576,0.813,1.956,1.582c0.289,0.568,1.433,2.774,1.669,3.158C40.992,20.793,42.689,21,44,21c1.657,0,3,1.343,3,3	s-1.343,3-3,3c-2.074,0-3.711-0.358-5-0.903V36C39,42.065,34.065,47,28,47z"/><linearGradient id="1~sa0a9TkApyT3tW4X3QCd" x1="23.935" x2="23.935" y1="21.29" y2="41" gradientTransform="matrix(1 0 0 -1 0 66)" gradientUnits="userSpaceOnUse"><stop offset="0" stop-color="#44c8ea"/><stop offset="1" stop-color="#53def3"/></linearGradient><path fill="url(#1~sa0a9TkApyT3tW4X3QCd)" d="M19,38c0,2.53,0.85,4.85,2.29,6.71C18.68,42.7,17,39.55,17,36c0-6.07,4.93-11,11-11	c1.36,0,2.5,0.89,2.87,2.13C30.6,27.05,30.3,27,30,27C23.93,27,19,31.93,19,38z"/><linearGradient id="1~sa0a9TkApyT3tW4X3QCe" x1="32.275" x2="32.275" y1="23" y2="51.002" gradientTransform="matrix(1 0 0 -1 0 66)" gradientUnits="userSpaceOnUse"><stop offset="0" stop-color="#44c8ea"/><stop offset="1" stop-color="#53def3"/></linearGradient><path fill="url(#1~sa0a9TkApyT3tW4X3QCe)" d="M38.69,16.67c0.06,0.11,0.14,0.28,0.25,0.48c-0.07-0.02-0.14-0.04-0.21-0.06	c-1.33-0.34-2.72,0.28-3.37,1.49c-0.33,0.61-0.44,1.11-0.36,1.66V38c0,2.76-2.24,5-5,5c-1.89,0-3.54-1.05-4.39-2.61	C26.32,40.78,27.13,41,28,41c2.76,0,5-2.24,5-5V18.24c-0.08-0.55,0.03-1.05,0.36-1.66c0.65-1.21,2.04-1.83,3.37-1.49	C37.61,15.31,38.31,15.9,38.69,16.67z"/><linearGradient id="1~sa0a9TkApyT3tW4X3QCf" x1="44.315" x2="44.315" y1="42.87" y2="45.27" gradientTransform="matrix(1 0 0 -1 0 66)" gradientUnits="userSpaceOnUse"><stop offset="0" stop-color="#44c8ea"/><stop offset="1" stop-color="#53def3"/></linearGradient><path fill="url(#1~sa0a9TkApyT3tW4X3QCf)" d="M46.87,23.13C46.6,23.05,46.3,23,46,23c-1.31,0-3.01-0.21-3.64-1.17	c-0.1-0.15-0.33-0.59-0.6-1.1C42.47,20.94,43.29,21,44,21C45.36,21,46.5,21.89,46.87,23.13z"/></svg>