<svg height="210mm" width="210mm" xmlns="http://www.w3.org/2000/svg"><g font-size="12"><path d="M155.737 601.595c-19.08-1.562-32.073-23.739-23.713-41.084 34.582-60.038 192.418-331.192 230.336-397.697 10.894-15.744 36.595-15.908 47.436.006 34.704 59.967 191.87 330.888 230.506 396.979 8.188 17.305-4.521 39.645-23.723 41.078-69.286.07-384.287.303-460.842.718z" fill="red" fill-rule="evenodd"/><path d="M185.524 555.349l402.729-1.165L385.848 198.63 185.524 555.349z" fill="#fff" fill-rule="evenodd"/><path d="M349.174 316.77c-11.238 0-20.884 9.901-20.884 21.14 0 11.237 10.155 21.107 21.393 21.107 3.024 0 5.348-.5 7.929-1.685.529.598 1.627 2.053 2.072 2.735-.168 2.036-.94 3.471-4.028 6.427-10.694 9.404-8.674 18.493-7.183 29.29.983 8.192 3.067 14.02 3.955 22.223-4.999 9.721-8.817 13.695-11.908 28.274-1.468 4.008-2.111 6.388-1.83 11.567-5.911 3.62-12.948 7.15-18.873 10.749-3.536-9.82-14.87-6.055-16.875-15.281-4.48-8.788-11.847-10.698-25.437-12.782-2.457-1.045-4.29.702-7.157 1.407-18.284 32.358-35.974 65.046-54.03 97.53h124.687c.009-8.229-2.356-13.507-4.313-22.468-.18-3.725-1.67-5.063-3.406-13.187-2.253-3.949-5.65-9.837-5.813-14.032-1.531-7.316-4.215-8.069-5.125-12.218 5.037-2.843 13.884-7.639 18.657-11.313 6.215 2.516 15.225-1.503 16.968-6.812-.45-4.48.321.097.024-2.34a3417.316 3417.316 0 0121.271-13.499c-6.549 13.678-7.461 15.047-8.17 40.464-.546 14.561-1.652 29.09-2.062 43.656-6.708 2.276-14.234 4.574-19.656 8.608-1.673 5.683 7.238 2.79 10.125 3.798 10.605-.026 22.162-.292 32.766-.375 2.293-10.086 3.215-21.342 6.79-31.504 1.62-9.364 3.747-18.442 5.162-27.84-.718.117-.839.178-1.69.262.087-3.072-.024-5.58.371-7.784 3.435-7.26 16.603-28.24 19.663-34.165 2.785 16.162 8.773 32.716 19.875 45 12.439 11.143 25.75 21.347 38.438 32.187 5.578 4.782-.315 12.308-3.344 16.688-1.846 2.746-4.663 4.706-6.656 7.281 9.653 2.808 21.815-.382 26.625-9.969 4.386-7.937 9.289-15.715 12.312-24.312-13.907-2.13-19.099-16.299-27.937-25.25-1.616-2.11-14.094-15.59-15.438-17.656-1.407.536-1.705.714-2.625 1.406-1.977-1.707-3.477-2.694-5.437-4.406-4.578-7.873-1.574-17.694-4.344-26.22-1.623-10.148-3.973-20.132-8.844-29.28 2.097-1.487 2.385-3.569 5.105-.626 1.646 2.616 10.378-6.046 12.656-8.61 1.066-4.035-3.334-5.849-5.448-9.577-2.946-6.702-3.937-12.361-4.517-19.748-2.504-12.26-10.064-25.91-21.608-32.252-4.9-2.536-10.625-3.087-16.063-2.844-14.537 1.189-28.835 6.709-40.848 14.644-2.665 1.768-2.85 1.152-4.513-1.607.838-2.229.58-3.14.58-5.662 0-11.238-10.124-21.138-21.362-21.138zm70.237 37.077c6.122-.198 13.236 1.353 15.031 8.156 4.1 9.663 6.175 19.96 10.375 29.625-1.02 1.374-5.219 8.32-6.25 2-7.962-11.616-12.627-25.39-22.437-35.75-2.698-2.46 1.105-4.452 3.28-4.031zm-48.188 41.969c6.348 5.258 11.914 10.97 16.282 17.968 3.695 4.793-2.392 11.61-2.875 16.032-6.548 4.22-18.598 9.791-27.97 17.375-.93.245-3.224 1.896-.03-2.75 3.072-7.004 10.638-16.317 14.273-21.118-.087-6.39.343-21.119.32-27.507z"/></g></svg>
